<svg width="144" height="122" viewBox="0 0 144 122" fill="none" xmlns="http://www.w3.org/2000/svg">
<path fill-rule="evenodd" clip-rule="evenodd" d="M47.2889 121.526V119.192H43.1555C44.3515 117.603 44.9975 115.666 44.9955 113.675C44.9955 108.572 40.8686 104.434 35.7778 104.434C30.6869 104.434 26.56 108.572 26.56 113.675C26.5598 114.274 26.6164 114.87 26.7289 115.458C25.9683 115.153 25.1569 114.996 24.3378 114.994C20.7315 114.985 17.7974 117.902 17.7778 121.518H47.2889V121.526Z" fill="#C0D219"/>
<path fill-rule="evenodd" clip-rule="evenodd" d="M110.916 118.479V121.526H143.52V121.446C143.394 115.659 138.626 111.063 132.853 111.162C131.499 111.159 130.155 111.403 128.889 111.884C128.905 111.587 128.905 111.29 128.889 110.993C128.655 105.237 123.933 100.692 118.187 100.692C112.441 100.692 107.718 105.237 107.484 110.993C107.508 113.865 108.757 116.59 110.916 118.479V118.479Z" fill="#85AF05"/>
<path fill-rule="evenodd" clip-rule="evenodd" d="M134.649 121.437C134.171 117.718 131.012 114.933 127.271 114.932C126.854 114.935 126.437 114.974 126.027 115.048C124.52 111.773 121.033 109.893 117.477 110.439C113.921 110.985 111.154 113.824 110.693 117.4H121.778C120.761 118.524 120.112 119.933 119.92 121.437H134.649Z" fill="#ACC700"/>
<path fill-rule="evenodd" clip-rule="evenodd" d="M80.5245 3.44092L37.8578 51.9994V121.58H46.6133V119.708H73.1556V121.58H123.182V51.9994L80.5245 3.44092Z" fill="#FDCC2E"/>
<path fill-rule="evenodd" clip-rule="evenodd" d="M64.96 32.2515L70.2222 50.0743C70.5238 51.1417 70.3625 52.2871 69.7778 53.229L43.3422 97.3941C42.2188 99.2994 39.7832 99.9563 37.8578 98.8734V51.9992L57.0667 30.184L60.3822 29.4978C62.3899 29.0849 64.3787 30.2812 64.96 32.2515ZM58.9547 37.5775C60.0354 38.229 61.4383 37.8794 62.0889 36.7963H62.0533C62.7114 35.7206 62.3775 34.3138 61.3067 33.6506C60.2251 33.0004 58.8226 33.3519 58.1734 34.4358C57.5242 35.5197 57.8739 36.9259 58.9547 37.5775Z" fill="#FFB70A"/>
<path fill-rule="evenodd" clip-rule="evenodd" d="M80.5245 3.44092L37.8578 51.9994V55.858L80.4622 9.34029L123.12 57.2838V51.9281L80.5245 3.44092V3.44092Z" fill="#F8B000"/>
<path fill-rule="evenodd" clip-rule="evenodd" d="M126.622 58.8611L80.5244 6.39058L34.4267 58.8611L31.5111 56.2857L80.5244 0.491211L129.538 56.2857L126.622 58.8611V58.8611Z" fill="#F97D00"/>
<path fill-rule="evenodd" clip-rule="evenodd" d="M86.8356 35.9319V55.5371H74.0978V35.9319L86.8356 35.9319Z" fill="#53241B"/>
<path fill-rule="evenodd" clip-rule="evenodd" d="M80.48 55.5997L86.8356 49.228V36.6272H85.6622L75.0756 47.2496V55.5997H80.48V55.5997Z" fill="#694039"/>
<path fill-rule="evenodd" clip-rule="evenodd" d="M72.1867 57.5691H88.8889V58.3622C88.8889 59.3465 88.093 60.1445 87.1111 60.1445H74C73.0182 60.1445 72.2222 59.3465 72.2222 58.3622V57.5691H72.1867Z" fill="#F8B000"/>
<path fill-rule="evenodd" clip-rule="evenodd" d="M72.1867 57.5689V33.9001H88.8889V57.5689H72.1867ZM74.0978 55.5371H86.8356V35.932H74.0978V55.5371Z" fill="white"/>
<path fill-rule="evenodd" clip-rule="evenodd" d="M109.6 77.8425V98.0893H83.6444V77.8425L109.6 77.8425Z" fill="#53241B"/>
<path fill-rule="evenodd" clip-rule="evenodd" d="M98.6667 82.4766L102.702 78.4575L110.302 78.4219V92.2346L103.876 98.6687H98.6667V82.4766ZM96.24 98.7043H84.3289V96.8775L96.24 84.9272V98.7043Z" fill="#694039"/>
<path fill-rule="evenodd" clip-rule="evenodd" d="M81.6711 100.184H111.689V101.003C111.689 102.042 110.849 102.884 109.813 102.884H83.5556C82.5197 102.884 81.68 102.042 81.68 101.003V100.184H81.6711Z" fill="#F8B000"/>
<path fill-rule="evenodd" clip-rule="evenodd" d="M81.6711 100.184V75.7395H111.689V100.184H81.6711ZM83.6444 98.0894H109.6V77.8426H83.6444V98.0894Z" fill="white"/>
<path fill-rule="evenodd" clip-rule="evenodd" d="M95.8578 76.7285H98.0533V98.9715H95.8578V76.7285Z" fill="white"/>
<path fill-rule="evenodd" clip-rule="evenodd" d="M49.4311 77.2988H68.7556V118.381H49.4311V77.2988Z" fill="#6DCBF7"/>
<ellipse cx="65.5111" cy="101.734" rx="1.10222" ry="1.10502" fill="#00A8E8"/>
<path fill-rule="evenodd" clip-rule="evenodd" d="M59.5911 77.2988H49.4311V87.7163L52.7911 87.5648L59.5911 77.2988Z" fill="#4CB7F5"/>
<path fill-rule="evenodd" clip-rule="evenodd" d="M52.7911 79.1526H66.7734V84.7311H52.7911V79.1526Z" fill="#53241B"/>
<path fill-rule="evenodd" clip-rule="evenodd" d="M48.8889 118.381V75.4275H70.6222V118.381H68.7556V88.0817H50.7556V118.381H48.8889ZM50.7556 77.2633V86.1747H68.7556V77.2633H50.7556Z" fill="white"/>
<path fill-rule="evenodd" clip-rule="evenodd" d="M50.7556 86.0054L48.8889 89.1155V75.4275H57.0933L55.9733 77.2989H50.7556V86.0054ZM73.3422 118.211H46.4V121.58H73.3422V118.211Z" fill="#E6F2F7"/>
<path opacity="0.8" fill-rule="evenodd" clip-rule="evenodd" d="M66.3822 27.8225L70.4889 45.9394C70.7343 47.0181 70.5148 48.1504 69.8844 49.0584L40.6489 91.4413C39.4025 93.2704 36.9263 93.7653 35.0756 92.5552L12.6044 76.9869C10.8346 75.6692 10.4397 73.1751 11.7156 71.3727L40.8889 29.0077C41.5145 28.0973 42.4908 27.49 43.5822 27.3324L61.9378 24.7748C63.9858 24.4715 65.9217 25.799 66.3822 27.8225ZM59.4535 29.5664C58.7379 30.6069 58.9984 32.032 60.0356 32.7505V32.7416C60.534 33.0885 61.1495 33.2224 61.7465 33.1137C62.3435 33.0051 62.8728 32.6628 63.2178 32.1624C63.9312 31.1203 63.6677 29.6958 62.629 28.9795C61.5903 28.2631 60.1691 28.5258 59.4535 29.5664Z" fill="white"/>
<path fill-rule="evenodd" clip-rule="evenodd" d="M59.2089 25.0961C59.2319 25.4261 59.5013 25.6844 59.8311 25.6928L59.92 25.6839L61.5022 25.47C61.7293 25.4382 61.9222 25.2873 62.0082 25.0742C62.0942 24.8612 62.0603 24.6183 61.9193 24.4371C61.7783 24.2559 61.5515 24.1638 61.3244 24.1957L59.7422 24.4185C59.4168 24.4728 59.1858 24.7662 59.2089 25.0961ZM64.8355 26.2899C64.9526 26.4096 65.1128 26.477 65.28 26.477V26.4948C65.4523 26.4775 65.6114 26.3946 65.7244 26.2631C65.9638 26.0145 65.9638 25.6206 65.7244 25.372C65.2813 24.9338 64.7514 24.5937 64.1689 24.3739C63.8375 24.2459 63.4654 24.4115 63.3378 24.7437C63.2101 25.0759 63.3753 25.449 63.7067 25.5769C64.127 25.7359 64.511 25.9784 64.8355 26.2899ZM51.5822 26.8424C51.2288 26.867 50.9223 26.5997 50.8978 26.2453C50.8732 25.8909 51.1399 25.5837 51.4933 25.5591L53.0844 25.3452C53.3219 25.2885 53.5709 25.3721 53.7264 25.5608C53.8818 25.7495 53.9166 26.0105 53.8161 26.2335C53.7156 26.4565 53.4973 26.6028 53.2533 26.6107L51.6711 26.8334L51.5822 26.8424ZM46.8355 26.816C46.8585 27.146 47.128 27.4043 47.4578 27.4127L47.5467 27.4038L49.1378 27.1899C49.3066 27.1657 49.4588 27.0749 49.5606 26.9377C49.6624 26.8005 49.7054 26.6283 49.68 26.4592C49.658 26.2906 49.5693 26.138 49.4339 26.0358C49.2984 25.9335 49.1276 25.8902 48.96 25.9156L47.3689 26.1384C47.0434 26.1927 46.8125 26.4861 46.8355 26.816ZM43.3333 28.0008C43.0327 27.9991 42.7737 27.7877 42.7111 27.4929C42.6441 27.1476 42.8592 26.8104 43.2 26.7265C43.2639 26.7265 43.3251 26.7129 43.3865 26.6992L43.3865 26.6992L43.3866 26.6992C43.4363 26.6881 43.4861 26.677 43.5378 26.673L44.8356 26.4859C45.0042 26.4631 45.1749 26.5086 45.31 26.6123C45.4451 26.716 45.5334 26.8693 45.5555 27.0384C45.5809 27.2065 45.5377 27.3777 45.4357 27.5135C45.3337 27.6493 45.1814 27.7382 45.0133 27.7602L43.7156 27.9385H43.4756L43.3333 28.0008ZM66.1689 29.7831C66.2416 30.074 66.5009 30.279 66.8 30.2822L66.9422 30.2644C67.2853 30.1848 67.4998 29.8423 67.4222 29.498L67.0667 27.9296C66.9873 27.5856 66.6457 27.3706 66.3022 27.4483C65.9586 27.5281 65.7414 27.8685 65.8133 28.2147L66.1689 29.7831ZM40.2489 30.5941C40.1182 30.5954 39.9905 30.5548 39.8844 30.4782C39.5925 30.2788 39.5169 29.88 39.7156 29.5871L40.3911 28.6157C40.4847 28.4796 40.5856 28.3488 40.6933 28.2236C40.9271 27.968 41.3211 27.9448 41.5831 28.1713C41.8451 28.3978 41.8801 28.7919 41.6622 29.0613C41.5834 29.1503 41.5121 29.2457 41.4489 29.3465L40.7733 30.3178C40.657 30.496 40.4612 30.6058 40.2489 30.6119V30.5941ZM37.52 33.9091C37.6227 33.9856 37.7476 34.0263 37.8756 34.025V34.0428C38.0874 34.0352 38.2827 33.9258 38.4 33.7487L39.2889 32.4298C39.4375 32.2427 39.47 31.9882 39.3731 31.7696C39.2762 31.551 39.066 31.4046 38.8279 31.3897C38.5897 31.3749 38.3631 31.4942 38.24 31.6991L37.3511 33.018C37.1524 33.3109 37.228 33.7097 37.52 33.9091ZM67.7155 34.3547C67.4149 34.3529 67.156 34.1416 67.0933 33.8468L66.7378 32.2873C66.687 32.0628 66.7595 31.8282 66.9279 31.6719C67.0964 31.5155 67.3353 31.4612 67.5546 31.5293C67.7739 31.5974 67.9403 31.7776 67.9911 32.0021L68.3467 33.5616C68.4241 33.9108 68.2057 34.2572 67.8578 34.3369L67.7155 34.3547ZM35.1911 37.3668C35.2996 37.4384 35.4257 37.4785 35.5556 37.4826C35.7666 37.4801 35.9628 37.3734 36.08 37.1975L36.9689 35.8786C37.1694 35.588 37.0978 35.1896 36.8089 34.9874C36.518 34.7915 36.1245 34.8625 35.92 35.1478L35.0311 36.4756C34.8306 36.7662 34.9021 37.1645 35.1911 37.3668ZM68.0267 37.9371C68.0892 38.2274 68.3447 38.4346 68.6401 38.4362L68.0267 37.9371ZM32.5899 40.5689C32.6999 40.7802 32.9178 40.9129 33.1556 40.9135H33.1467C33.364 40.9169 33.5682 40.8096 33.6889 40.6284L34.5778 39.3095C34.7714 39.0156 34.6965 38.6206 34.4089 38.4183C34.1168 38.2191 33.7189 38.2949 33.52 38.5876L32.6311 39.9065C32.4957 40.1025 32.4798 40.3576 32.5899 40.5689ZM69.6 42.5087C69.302 42.5078 69.044 42.3009 68.9778 42.0096L68.6222 40.4412C68.5825 40.2756 68.611 40.101 68.7013 39.9568C68.7917 39.8125 68.9362 39.7109 69.1022 39.6748C69.2685 39.6348 69.4438 39.6632 69.5891 39.7536C69.7344 39.844 69.8375 39.9889 69.8756 40.1561L70.2222 41.7245C70.262 41.89 70.2334 42.0647 70.1431 42.2089C70.0528 42.3532 69.9082 42.4548 69.7422 42.4908L69.6 42.5087ZM30.8056 44.3444C30.6792 44.3432 30.5561 44.3028 30.4533 44.2286C30.3126 44.133 30.2162 43.9845 30.1861 43.8168C30.156 43.6491 30.1946 43.4762 30.2933 43.3374L31.1822 42.0185C31.3053 41.8136 31.5319 41.6944 31.7701 41.7092C32.0083 41.724 32.2184 41.8704 32.3153 42.089C32.4122 42.3076 32.3798 42.5621 32.2311 42.7493L31.3422 44.0682C31.216 44.2514 31.0041 44.356 30.7822 44.3444H30.8056ZM70.6133 47.2228C70.2767 47.2187 70.0009 46.9538 69.9822 46.6168C69.9822 46.4639 69.9495 46.3045 69.9178 46.1497L69.9022 46.0732L69.5467 44.5137C69.4762 44.2839 69.5398 44.0337 69.7116 43.8658C69.8833 43.6979 70.1343 43.6404 70.3618 43.7168C70.5893 43.7933 70.755 43.9908 70.7911 44.2286L71.1467 45.7881C71.2083 46.0332 71.244 46.2841 71.2533 46.5366C71.2738 46.8896 71.0093 47.1944 70.6578 47.2228H70.6133ZM28.0889 47.6684C28.1943 47.7385 28.318 47.7757 28.4444 47.7753C28.6525 47.7784 28.8487 47.6783 28.9689 47.508L29.8578 46.1891C30.0064 46.002 30.0389 45.7475 29.942 45.5288C29.8451 45.3102 29.6349 45.1638 29.3968 45.149C29.1586 45.1342 28.932 45.2534 28.8089 45.4584L27.92 46.7773C27.7264 47.0712 27.8012 47.4662 28.0889 47.6684ZM69.0133 50.9745C68.8826 50.9758 68.755 50.9352 68.6489 50.8587C68.3569 50.6593 68.2813 50.2604 68.48 49.9675L69.3689 48.6487C69.5715 48.3663 69.9617 48.2972 70.2485 48.4929C70.5354 48.6887 70.6144 49.0779 70.4267 49.3705L69.5378 50.6983C69.4186 50.8708 69.2227 50.974 69.0133 50.9745ZM25.68 51.0993C25.7866 51.1748 25.9139 51.2152 26.0444 51.2151C26.2531 51.2117 26.4477 51.1092 26.5689 50.9389L27.4578 49.6111C27.6583 49.3205 27.5867 48.9222 27.2978 48.7199C27.0046 48.5258 26.6106 48.6009 26.4089 48.8893L25.52 50.2082C25.3195 50.4987 25.391 50.8971 25.68 51.0993ZM66.6667 54.4144C66.5394 54.4115 66.4157 54.3713 66.3111 54.2985C66.0191 54.0991 65.9435 53.7002 66.1422 53.4074L67.0311 52.0796C67.1542 51.8746 67.3808 51.7554 67.619 51.7702C67.8571 51.785 68.0673 51.9314 68.1642 52.1501C68.2611 52.3687 68.2286 52.6232 68.08 52.8103L67.1911 54.1292C67.0739 54.3051 66.8777 54.4118 66.6667 54.4144ZM23.1321 54.3014C23.2422 54.5127 23.46 54.6454 23.6978 54.646H23.68C23.9004 54.6525 24.1087 54.5448 24.2311 54.3609L25.12 53.042C25.3136 52.7481 25.2388 52.3531 24.9511 52.1508C24.659 51.9516 24.2611 52.0274 24.0622 52.3202L23.1733 53.6391C23.0379 53.835 23.022 54.0901 23.1321 54.3014ZM64.2924 57.8453C64.1622 57.8452 64.0353 57.8047 63.9289 57.7294C63.6399 57.5272 63.5684 57.1288 63.7689 56.8383L64.6578 55.5194C64.788 55.3299 65.0091 55.2245 65.2378 55.2429C65.4666 55.2612 65.6682 55.4005 65.7667 55.6082C65.8653 55.816 65.8458 56.0607 65.7156 56.2501L64.8267 57.569C64.7 57.747 64.4936 57.8505 64.2756 57.8453H64.2924ZM20.9689 57.97C21.0775 58.0403 21.2041 58.0775 21.3333 58.077C21.5442 58.0814 21.7437 57.9814 21.8667 57.8096L22.7556 56.4907C22.9542 56.1979 22.8787 55.799 22.5867 55.5996C22.4482 55.5006 22.2758 55.4619 22.1085 55.4921C21.9412 55.5223 21.7931 55.6189 21.6978 55.76L20.8089 57.0789C20.6084 57.3694 20.6799 57.7678 20.9689 57.97ZM61.92 61.2762C61.6822 61.2755 61.4644 61.1428 61.3543 60.9315C61.2443 60.7202 61.2602 60.4651 61.3956 60.2692L62.2844 58.9503C62.3798 58.8092 62.5279 58.7126 62.6952 58.6824C62.8625 58.6522 63.0349 58.6909 63.1733 58.7899C63.4653 58.9893 63.5409 59.3882 63.3422 59.681L62.4533 60.9999C62.3306 61.1777 62.1267 61.2816 61.9111 61.2762H61.92ZM18.5956 61.4009C18.7015 61.4739 18.8265 61.5141 18.9549 61.5167L18.9511 61.5168H18.96L18.9549 61.5167C19.1625 61.5134 19.3561 61.4108 19.4756 61.2405L20.3644 59.9127C20.5131 59.7256 20.5455 59.4711 20.4486 59.2525C20.3517 59.0339 20.1416 58.8874 19.9034 58.8726C19.6653 58.8578 19.4387 58.977 19.3156 59.182L18.4267 60.5098C18.228 60.8026 18.3036 61.2015 18.5956 61.4009ZM59.5555 64.7071C59.4263 64.7076 59.2997 64.6704 59.1911 64.6001C58.9021 64.3979 58.8306 63.9995 59.0311 63.709L59.92 62.3901C60.1213 62.0973 60.5212 62.0234 60.8133 62.2252C61.1054 62.427 61.1791 62.828 60.9778 63.1208L60.0889 64.4397C59.9692 64.6153 59.7675 64.7164 59.5555 64.7071ZM16.2222 64.8318C16.325 64.9083 16.4498 64.949 16.5778 64.9477C16.7864 64.9442 16.981 64.8417 17.1022 64.6714L17.9911 63.3525C18.1398 63.1654 18.1722 62.9109 18.0753 62.6923C17.9784 62.4737 17.7683 62.3273 17.5301 62.3124C17.2919 62.2976 17.0653 62.4169 16.9422 62.6218L16.0533 63.9407C15.8546 64.2336 15.9302 64.6324 16.2222 64.8318ZM57.1911 68.1469C57.0602 68.1495 56.9321 68.1087 56.8267 68.031C56.5347 67.8316 56.4591 67.4328 56.6578 67.1399L57.5467 65.821C57.7456 65.5283 58.1434 65.4525 58.4356 65.6517C58.5763 65.7473 58.6727 65.8957 58.7028 66.0635C58.7329 66.2312 58.6942 66.404 58.5956 66.5428L57.7067 67.8706C57.5864 68.042 57.3912 68.1448 57.1822 68.1469H57.1911ZM13.8578 68.2627C13.9644 68.3382 14.0917 68.3787 14.2222 68.3786C14.4347 68.381 14.6346 68.2775 14.7556 68.1023L15.6444 66.7834C15.8457 66.4906 15.7721 66.0896 15.48 65.8878C15.1879 65.686 14.7879 65.7599 14.5867 66.0527L13.6978 67.3716C13.4973 67.6621 13.5688 68.0605 13.8578 68.2627ZM54.8089 71.5421C54.6784 71.5422 54.5511 71.5018 54.4444 71.4263C54.1598 71.2213 54.089 70.8268 54.2844 70.5351L55.1733 69.2163C55.2964 69.0113 55.523 68.8921 55.7612 68.9069C55.9994 68.9217 56.2095 69.0681 56.3064 69.2867C56.4033 69.5054 56.3709 69.7599 56.2222 69.947L55.3333 71.2659C55.22 71.4497 55.0241 71.5662 54.8089 71.5778V71.5421ZM11.4844 71.6669C11.5929 71.7386 11.7191 71.7787 11.8489 71.7828C12.0639 71.7865 12.2655 71.6786 12.3822 71.4976L13.2711 70.1787C13.4724 69.8858 13.3988 69.4849 13.1067 69.2831C12.8146 69.0813 12.4146 69.1551 12.2133 69.448L11.3244 70.7758C11.2258 70.9145 11.1871 71.0874 11.2172 71.2551C11.2473 71.4229 11.3437 71.5713 11.4844 71.6669ZM52.4444 74.9552C52.3154 74.9543 52.1892 74.9172 52.08 74.8483C51.791 74.6461 51.7195 74.2477 51.92 73.9571L52.8089 72.6383C53.0102 72.3454 53.4101 72.2716 53.7022 72.4734C53.9943 72.6752 54.0679 73.0761 53.8667 73.369L52.9778 74.6879C52.8699 74.8826 52.6666 75.0049 52.4444 75.0087V74.9552ZM10.6667 75.3473C10.7701 75.5649 10.9864 75.706 11.2267 75.7127V75.7662C11.3109 75.788 11.3989 75.791 11.4844 75.7751C11.6449 75.7186 11.7764 75.6004 11.8497 75.4465C11.9231 75.2927 11.9324 75.1159 11.8756 74.9552C11.7409 74.5746 11.6718 74.1738 11.6711 73.77V73.6185C11.6806 73.3893 11.5675 73.1724 11.3742 73.0495C11.1809 72.9266 10.937 72.9164 10.7342 73.0227C10.5314 73.1291 10.4006 73.3358 10.3911 73.565V73.7254C10.3878 74.2781 10.4811 74.827 10.6667 75.3473ZM50.08 78.3861C49.8422 78.3855 49.6244 78.2528 49.5143 78.0415C49.4043 77.8302 49.4202 77.5751 49.5556 77.3791L50.4444 76.0513C50.5746 75.8619 50.7958 75.7565 51.0245 75.7748C51.2532 75.7932 51.4549 75.9324 51.5534 76.1402C51.6519 76.348 51.6324 76.5926 51.5022 76.7821L50.6133 78.1099C50.5073 78.3089 50.3048 78.4375 50.08 78.4485V78.3861ZM13.7511 78.4752C13.8539 78.5517 13.9787 78.5924 14.1067 78.5911V78.6C14.391 78.6048 14.6443 78.421 14.7287 78.1488C14.813 77.8766 14.7081 77.5812 14.4711 77.4237L13.1556 76.5326C12.8657 76.3316 12.4684 76.4033 12.2667 76.693C12.0712 76.9846 12.142 77.3791 12.4267 77.5841L13.7511 78.4752ZM17.5378 80.9615C17.4071 80.9628 17.2794 80.9222 17.1733 80.8457L15.8578 79.9545C15.5658 79.7551 15.4902 79.3563 15.6889 79.0634C15.8906 78.775 16.2846 78.7 16.5778 78.8941L17.8933 79.7852C18.1219 79.9455 18.2206 80.2358 18.1373 80.5026C18.054 80.7695 17.8078 80.9516 17.5289 80.9526L17.5378 80.9615ZM47.3511 81.7368C47.4572 81.8134 47.5849 81.854 47.7156 81.8527V81.8794C47.9268 81.87 48.1197 81.7566 48.2311 81.5764L49.12 80.2575C49.2686 80.0704 49.3011 79.8159 49.2042 79.5973C49.1073 79.3787 48.8971 79.2323 48.659 79.2174C48.4208 79.2026 48.1942 79.3219 48.0711 79.5268L47.1822 80.8457C46.9835 81.1385 47.0591 81.5374 47.3511 81.7368ZM20.96 83.3676C20.8295 83.3677 20.7022 83.3272 20.5956 83.2518L19.28 82.3606C19.0756 82.2372 18.9567 82.01 18.9714 81.7713C18.9862 81.5325 19.1323 81.3218 19.3503 81.2247C19.5684 81.1275 19.8222 81.1601 20.0089 81.3091L21.3244 82.2002C21.553 82.3605 21.6517 82.6508 21.5684 82.9176C21.4851 83.1845 21.2389 83.3666 20.96 83.3676ZM44.9867 85.1588C45.0894 85.2353 45.2143 85.276 45.3422 85.2747L45.3333 85.3103C45.5518 85.3017 45.7516 85.1848 45.8667 84.9984L46.7556 83.6795C46.9042 83.4924 46.9367 83.2379 46.8398 83.0193C46.7429 82.8007 46.5327 82.6543 46.2945 82.6394C46.0564 82.6246 45.8298 82.7439 45.7067 82.9488L44.8178 84.2677C44.6191 84.5605 44.6947 84.9594 44.9867 85.1588ZM24.3822 85.7292C24.2532 85.7282 24.127 85.6912 24.0178 85.6222L22.7022 84.7311C22.4978 84.6076 22.3789 84.3805 22.3937 84.1417C22.4084 83.9029 22.5545 83.6922 22.7725 83.5951C22.9906 83.498 23.2444 83.5305 23.4311 83.6795L24.7467 84.5707C25.0387 84.7701 25.1142 85.1689 24.9156 85.4618C24.8019 85.6484 24.6003 85.763 24.3822 85.7648V85.7292ZM27.4489 87.9927C27.5544 88.0704 27.6824 88.1111 27.8133 88.1085V88.1174C28.0911 88.11 28.3332 87.9261 28.4157 87.6601C28.4981 87.3941 28.4024 87.105 28.1778 86.9411L26.8533 86.05C26.5635 85.849 26.1662 85.9207 25.9644 86.2104C25.7708 86.5043 25.8457 86.8993 26.1333 87.1015L27.4489 87.9927ZM42.9778 88.7145C42.8479 88.7104 42.7218 88.6703 42.6133 88.5986C42.3244 88.3964 42.2528 87.998 42.4533 87.7075L43.3422 86.3797C43.5467 86.0943 43.9402 86.0233 44.2311 86.2193C44.5201 86.4215 44.5916 86.8199 44.3911 87.1104L43.5022 88.4293C43.385 88.6052 43.1888 88.7119 42.9778 88.7145ZM30.8711 90.3809C30.9772 90.4575 31.1049 90.4981 31.2356 90.4968C31.4434 90.4913 31.6357 90.385 31.7511 90.2116C31.8498 90.0728 31.8885 89.9 31.8583 89.7322C31.8282 89.5645 31.7319 89.416 31.5911 89.3205L30.2756 88.4293C29.9824 88.2352 29.5884 88.3103 29.3867 88.5986C29.188 88.8915 29.2636 89.2904 29.5556 89.4898L30.8711 90.3809ZM40.6133 92.181C40.4762 92.1793 40.3429 92.1358 40.2311 92.0563C39.9511 91.8458 39.8917 91.4488 40.0978 91.1651L40.16 91.0849L40.9956 89.8641C41.1944 89.5713 41.5923 89.4956 41.8844 89.6947C42.1721 89.897 42.247 90.292 42.0533 90.5859L41.1644 91.9137C41.0369 92.0896 40.8301 92.1899 40.6133 92.181ZM34.2933 92.7692C34.3999 92.8447 34.5273 92.8851 34.6578 92.885H34.6667C34.8769 92.8795 35.0718 92.7735 35.1911 92.5999C35.3898 92.307 35.3142 91.9081 35.0222 91.7087L33.7067 90.8176C33.4145 90.6184 33.0167 90.6942 32.8178 90.9869C32.7191 91.1257 32.6804 91.2985 32.7105 91.4663C32.7407 91.634 32.837 91.7825 32.9778 91.878L34.2933 92.7692ZM36.9422 93.8653H37.2711C37.7781 93.8688 38.2823 93.7906 38.7644 93.6336C39.1007 93.5229 39.2838 93.1598 39.1733 92.8227C39.0629 92.4855 38.7007 92.302 38.3644 92.4127C37.9387 92.5574 37.4883 92.615 37.04 92.582C36.8113 92.5645 36.5907 92.6706 36.4613 92.8604C36.3318 93.0502 36.3132 93.2948 36.4124 93.502C36.5116 93.7093 36.7136 93.8478 36.9422 93.8653ZM55.7067 26.2631C55.3769 26.2548 55.1074 25.9964 55.0844 25.6665C55.0614 25.3365 55.2923 25.0431 55.6178 24.9888L57.2089 24.766C57.5599 24.7192 57.8822 24.9666 57.9289 25.3185C57.9755 25.6704 57.7288 25.9936 57.3778 26.0403L55.7956 26.2631H55.7067ZM31.4667 79.0277L30.7822 80.0169L29.3333 79.001L29.8222 78.2792C29.6409 78.1764 29.4665 78.0597 29.2806 77.9351L29.2802 77.9349L29.2799 77.9346L29.2089 77.8871C28.9956 77.7445 28.7644 77.5752 28.5689 77.4059L28.0711 78.1277L26.6044 77.1296L27.2978 76.1226C25.1106 73.2494 25.1106 69.2645 27.2978 66.3913C28.7833 64.0804 31.4556 62.824 34.1778 63.1565L33.7156 66.3289C32.1639 66.138 30.6343 66.8241 29.7422 68.1112C28.6815 69.5919 28.5539 71.5486 29.4133 73.1551L32.6844 68.3964L34.1333 69.4034L30.5778 74.5988C30.774 74.7823 30.9851 74.9492 31.2089 75.0978C31.4222 75.2404 31.6267 75.3562 31.8311 75.4721L35.3867 70.2678L36.8533 71.2926L33.5733 76.0602C35.3893 76.3207 37.1924 75.5088 38.2044 73.975C39.0775 72.6789 39.163 71.0049 38.4267 69.6262L41.2 68.0489C42.4653 70.4863 42.252 73.4306 40.6489 75.6592C38.7083 78.7448 34.9354 80.1289 31.4667 79.0277ZM48.6578 59.2176L44.9244 56.6333L47.1733 53.3272L45.1378 51.9281L42.8978 55.1896L39.3422 52.7123L37.7956 54.9579L41.3511 57.4353L39.1111 60.6969L41.1378 62.1049L43.3778 58.8433L47.1111 61.4277L48.6578 59.2176ZM53.4578 56.8472L42.9422 42.7849L44.6044 40.361L55.1111 54.4233L53.4578 56.8472ZM55.0222 38.0351L50.7822 44.1484L52.8178 45.5475L57.0489 39.4342L55.0222 38.0351Z" fill="#00A8E8"/>
<ellipse cx="16.8622" cy="80.9436" rx="1.24444" ry="1.2476" fill="#FFB70A"/>
<path fill-rule="evenodd" clip-rule="evenodd" d="M15.4667 81.1665L4.62222 92.6801L8.57778 92.6533L16.6933 82.4943L15.4667 81.1665Z" fill="#F97D00"/>
<path fill-rule="evenodd" clip-rule="evenodd" d="M10.4178 87.957C10.0957 87.8076 9.76293 87.6824 9.42222 87.5828L4.62222 92.6801H8.57778L11.7956 88.7145C11.3566 88.4266 10.8959 88.1734 10.4178 87.957V87.957Z" fill="#D55800"/>
<path fill-rule="evenodd" clip-rule="evenodd" d="M10.0622 91.6819L6.88 91.7086L7.01334 87.5381L10.2489 87.4312L10.0622 91.6819V91.6819Z" fill="#FFB70A"/>
<path fill-rule="evenodd" clip-rule="evenodd" d="M10.7467 81.1397C10.656 81.1849 10.5464 81.1629 10.48 81.0863C9.74675 80.4419 8.78557 80.1207 7.81333 80.1951C6.49108 80.3058 5.37215 81.2188 4.99555 82.4943C4.96734 82.5749 4.89394 82.631 4.80889 82.6369C4.56752 83.287 4.55187 83.9996 4.76444 84.6598C4.95111 85.239 5.20889 85.7737 5.36 86.3618C5.37596 86.4189 5.36655 86.48 5.33417 86.5296C5.3018 86.5791 5.24963 86.6122 5.19111 86.6203L5.50222 87.6629C5.84887 88.9605 6.87166 89.9667 8.17233 90.2896C9.47299 90.6126 10.8459 90.2012 11.7566 89.2157C12.6672 88.2302 12.9715 86.8264 12.5511 85.5509L11.6622 82.619C11.477 82.0608 11.1633 81.5541 10.7467 81.1397V81.1397Z" fill="#FFB70A"/>
<path fill-rule="evenodd" clip-rule="evenodd" d="M10.9689 81.2199C11.0752 81.0201 11.0311 80.7732 10.8622 80.6228C9.74312 79.8437 8.32199 79.642 7.03114 80.0792C5.08521 80.6632 3.97919 82.7173 4.56002 84.6686L5.16447 86.7004C5.60307 86.5984 6.00751 86.3834 6.3378 86.0766C7.04891 85.435 6.56891 83.8933 6.56891 83.8933C7.64626 83.5419 8.70023 83.1223 9.72447 82.6368C10.247 82.2718 10.6739 81.7858 10.9689 81.2199Z" fill="#53241B"/>
<path fill-rule="evenodd" clip-rule="evenodd" d="M5.12 86.5579L5.66222 88.3402C5.85879 89.0601 6.40323 89.6327 7.11111 89.864C7.92112 90.1168 8.804 89.8851 9.38666 89.267L9.44888 89.1957C9.97666 88.6338 10.1783 87.8389 9.98222 87.0926L9.54666 85.4885C9.54666 85.4885 11.6711 84.535 10.3289 82.0754L5.38666 83.7508L5.12 86.5579Z" fill="#53241B"/>
<path fill-rule="evenodd" clip-rule="evenodd" d="M9.57334 85.4885C9.26591 85.7042 9.15722 86.1099 9.31556 86.451C9.52001 87.155 10.0445 87.0837 10.0445 87.0837L10.1689 86.1925L9.57334 85.4885Z" fill="#FFB70A"/>
<path fill-rule="evenodd" clip-rule="evenodd" d="M9.75177 84.8257L10.4159 84.626L10.9599 86.4441C11.0149 86.6279 10.9109 86.8217 10.7275 86.8768C10.5441 86.932 10.3509 86.8277 10.2958 86.6438L9.75177 84.8257V84.8257Z" fill="#53241B"/>
<path fill-rule="evenodd" clip-rule="evenodd" d="M6.99557 120.715L7.48446 103.801L10.6134 101.618L8.86224 120.715H6.99557V120.715Z" fill="#53241B"/>
<path fill-rule="evenodd" clip-rule="evenodd" d="M10.4711 101.805H3.64447V102.821C3.6421 103.192 3.78715 103.547 4.04746 103.81C4.30776 104.073 4.66182 104.22 5.03113 104.22H10.3111L10.4711 101.805ZM6.99558 121.687H10.2222C10.4972 121.687 10.72 121.463 10.72 121.188C10.7152 120.916 10.4937 120.698 10.2222 120.698H6.99558V121.687Z" fill="#53241B"/>
<path fill-rule="evenodd" clip-rule="evenodd" d="M6.22222 92.0919C4.94061 92.0938 3.87974 93.0912 3.79555 94.3733L3.02222 101.502C3.02222 101.832 3.24444 102.198 3.49333 102.198H10.6667C11.0844 102.198 11.2267 101.868 11.2444 101.529L12.0089 94.6673C12.0558 93.9933 11.821 93.3301 11.3607 92.8365C10.9004 92.343 10.2562 92.0636 9.58222 92.0652L6.22222 92.0919Z" fill="#F97D00"/>
<path fill-rule="evenodd" clip-rule="evenodd" d="M3.93778 103.472L3.44 111.047L0.524445 119.138L2.02667 119.709L5.78667 111.991C5.92043 111.763 5.99954 111.507 6.01778 111.243L7.11111 104.167L3.93778 103.472Z" fill="#53241B"/>
<path fill-rule="evenodd" clip-rule="evenodd" d="M0.577787 120.065L1.46668 121.393C1.55591 121.527 1.70605 121.607 1.86668 121.607H3.1289C3.37436 121.607 3.57334 121.407 3.57334 121.161C3.56861 120.917 3.37237 120.72 3.1289 120.716H2.32001L1.77779 119.557L0.746676 119.156L0.568898 119.432C0.446542 119.626 0.450028 119.874 0.577787 120.065V120.065Z" fill="#53241B"/>
<ellipse cx="20.9245" cy="83.439" rx="1.24444" ry="1.2476" fill="#FFB70A"/>
<path fill-rule="evenodd" clip-rule="evenodd" d="M11.3511 95.2287L16.8889 91.9225C17.4451 91.5894 17.9047 91.1163 18.2222 90.5502L21.3956 84.9003L19.5111 83.5725L15.8134 89.3026L9.32446 92.5196L11.3511 95.2287Z" fill="#F97D00"/>
<path fill-rule="evenodd" clip-rule="evenodd" d="M10.2489 92.3771V91.5662C10.2215 91.3018 9.99849 91.1014 9.73335 91.1028H6.99557C6.82097 91.1025 6.65768 91.1894 6.56002 91.3345L6.40891 92.1276L10.2489 92.3771Z" fill="#F97D00"/>
<path d="M60.9778 30.4514C60.9778 30.4514 57.3422 18.2695 67.2 16.2822" stroke="#694039" stroke-width="3" stroke-linecap="round"/>
<path fill-rule="evenodd" clip-rule="evenodd" d="M62.6222 20.8717L68.2133 14.5L70.0889 15.9704L64.7822 21.3618L62.6222 20.8717Z" fill="#F97D00"/>
<rect x="107.742" y="65.812" width="5.85778" height="2.80711" rx="0.74" fill="#FFB70A"/>
<rect x="114.969" y="65.812" width="5.85778" height="2.80711" rx="0.74" fill="#FFB70A"/>
<path fill-rule="evenodd" clip-rule="evenodd" d="M123.182 69.5281H118.8C118.437 69.5281 118.142 69.8233 118.142 70.1875V71.6846C118.142 72.0488 118.437 72.3441 118.8 72.3441H123.182V69.5281Z" fill="#FFB70A"/>
</svg>
