<svg id="LINKS" xmlns="http://www.w3.org/2000/svg" width="180" height="232"><style>.st0{fill:none;stroke:#fac133;stroke-width:1.6681;stroke-linecap:round;stroke-miterlimit:10}.st1{fill:#82d0dc}.st2{fill:#fac133}.st3{fill:#3bb6c8}.st4{fill:#9ec300}.st5{fill:#55241a}.st6{fill:#ffc92f}.st7{fill:#fff}.st8{fill:none;stroke:#fac133;stroke-width:1.7373;stroke-linecap:round;stroke-miterlimit:10}.st9{fill:#b3cf01}</style><g id="XMLID_1019_"><g id="XMLID_1166_"><path id="XMLID_1179_" class="st0" d="M147.3 219.1v4.4"/><path id="XMLID_1171_" class="st0" d="M145.2 219.1v4.4"/><path id="XMLID_1170_" class="st1" d="M150 212.2c-2.2-2.2-11.2-3.3-11.2-3.3s1.2 9 3.4 11.2c2.2 2.2 5.7 2.2 7.9 0 2.1-2.2 2.1-5.7-.1-7.9z"/><path id="XMLID_1169_" class="st1" d="M157 219.4c0 1.3-1 2.3-2.3 2.3h-8.3v-4.6h8.3c1.3 0 2.3 1 2.3 2.3z"/><path id="XMLID_1168_" class="st2" d="M154.7 221.7l-1.8 2.3v-2.3z"/><path id="XMLID_1167_" class="st3" d="M148.2 213.5c-1.3-1.3-6.9-2.1-6.9-2.1s.7 5.6 2.1 6.9c1.3 1.3 3.5 1.3 4.9 0 1.2-1.2 1.2-3.4-.1-4.8z"/></g><path class="st4" d="M44.1 227.9v4.1h61.5c-.8-10-9.5-17.9-20.1-17.9-2.6 0-5.2.5-7.5 1.4.1-.6.1-1.2.1-1.8 0-10.7-9-19.4-20.2-19.4s-20.2 8.7-20.2 19.4c0 5.6 2.5 10.6 6.4 14.2z"/><path class="st5" d="M51.7 95.4H57v135.1h-5.3z"/><path class="st5" d="M59.5 229.7v-47.5c0-1.6-1.3-3-3-3h-4.4c-1.6 0-3 1.3-3 3v47.5h10.4z"/><path id="XMLID_1162_" class="st6" d="M28.3 68.6h-13c-3.1 0-5.7-2.5-5.7-5.7h24.3c0 3.1-2.5 5.7-5.6 5.7z"/><path id="XMLID_1161_" class="st6" d="M93.4 68.6h-13c-3.1 0-5.7-2.5-5.7-5.7H99c0 3.1-2.5 5.7-5.6 5.7z"/><g id="XMLID_1155_"><path id="XMLID_1158_" class="st5" d="M54.3 99.6c-1.4 0-2.5-1.1-2.5-2.5V84c0-.1 0-7.9-5.6-13.6-4-4.1-10.1-6.2-17.9-6.2H9.6c-1.4 0-2.5-1.1-2.5-2.5s1.1-2.5 2.5-2.5h18.7c9.3 0 16.5 2.6 21.5 7.7 7.1 7.2 7 16.7 7 17.1v13c0 1.5-1.1 2.6-2.5 2.6z"/></g><g id="XMLID_1151_"><path id="XMLID_1152_" class="st5" d="M54.3 99.6c-1.4 0-2.5-1.1-2.5-2.5V84c0-.4-.1-9.9 7-17 5-5.1 12.3-7.7 21.5-7.7H99c1.4 0 2.5 1.1 2.5 2.5s-1.1 2.5-2.5 2.5H80.3c-7.9 0-13.9 2.1-18 6.2-5.6 5.7-5.5 13.4-5.5 13.5v13.1c0 1.4-1.1 2.5-2.5 2.5z"/></g><path id="XMLID_1148_" class="st3" d="M73 129.1H35.5c-2.3 0-4.2-1.9-4.2-4.2V98.8c0-2.3 1.9-4.2 4.2-4.2H73c2.3 0 4.2 1.9 4.2 4.2v26.1c0 2.3-1.8 4.2-4.2 4.2z"/><path id="XMLID_1143_" class="st7" d="M73.1 98c.4 0 .8.4.8.8v26.1c0 .4-.4.8-.8.8H35.6c-.4 0-.8-.4-.8-.8V98.8c0-.4.4-.8.8-.8h37.5m0-1.2H35.6c-1.1 0-1.9.9-1.9 1.9v26.1c0 1.1.9 1.9 1.9 1.9h37.5c1.1 0 1.9-.9 1.9-1.9v-26c0-1.1-.8-2-1.9-2z"/><g id="XMLID_1139_"><path id="XMLID_1140_" class="st7" d="M67.6 109.5V107c0-.6-.5-1-1-1-.6 0-1 .5-1 1v.8l-3.4-3.4c-.4-.4-1.1-.4-1.5 0l-7.3 7.3c-.2.2-.3.5-.3.7v7.7c0 .6.5 1 1 1h.4c.6 0 1-.5 1-1v-4.9c0-.6.5-1 1-1h1.9c.6 0 1 .5 1 1v4.9c0 .6.5 1 1 1H69c.6 0 1-.5 1-1v-7.4c0-.3-.1-.5-.3-.7l-1.9-1.9c-.1-.1-.2-.3-.2-.6zm-.9 9h-4.1c-.6 0-1-.5-1-1v-2.2c0-.6.5-1 1-1h4.1c.6 0 1 .5 1 1v2.2c0 .6-.5 1-1 1z"/></g><g id="XMLID_1042_"><g id="XMLID_1136_"><path id="XMLID_1137_" class="st7" d="M46.1 121.7c-.2 0-.4-.1-.5-.3l-2-3.4-1.4 2.1-2.7-.8c-.3-.1-.5-.4-.4-.7.1-.3.4-.5.7-.4l1.9.6 2-2.9 2.8 4.9c.2.3.1.6-.2.8 0 0-.1.1-.2.1z"/></g><g id="XMLID_1133_"><g id="XMLID_1134_"><path id="XMLID_1135_" class="st7" d="M41.9 116.1c-.3 0-.5-.2-.6-.5L41 114c0-.2 0-.3.1-.4.1-.1.2-.2.4-.2l2.2-.2c.3 0 .6.2.6.5s-.2.6-.5.6l-1.6.1.2 1c.1.3-.1.6-.4.7h-.1z"/></g></g><g id="XMLID_1048_"><g id="XMLID_1131_"><path id="XMLID_1132_" class="st7" d="M46.9 116.2c-.2.1-.4.1-.6-.1l-1.5-1.5c-.2-.2-.2-.6 0-.8.2-.2.6-.2.8 0l1.2 1.1 1-.5c.3-.1.6 0 .8.2.1.3 0 .6-.2.8l-1.5.8z"/></g></g><g id="XMLID_1046_"><path id="XMLID_1047_" class="st7" d="M43.1 116.6l-.1-2.7c0-.5.5-.8 1-.7l1.2.3c.7.2 1 .9.7 1.6l-1.1 2.7c-.4.6-1.7-.4-1.7-1.2z"/></g><g id="XMLID_1044_"><circle id="XMLID_1045_" class="st7" cx="45.2" cy="111.1" r="1.5"/></g></g><g id="XMLID_1040_"><circle id="XMLID_1041_" class="st7" cx="51.3" cy="104.2" r="1.9"/></g><g id="XMLID_1020_"><path id="XMLID_1039_" class="st1" d="M27.1 39.5c1.3 0 2.4 1.1 2.4 2.4v10.3h-4.8V41.9c0-1.3 1.1-2.4 2.4-2.4z"/><path id="XMLID_1038_" class="st8" d="M25.3 55v4.6"/><path id="XMLID_1024_" class="st8" d="M23.1 55v4.6"/><path id="XMLID_1023_" class="st1" d="M23.7 46.2C20.5 46.2 13 52 13 52s7.5 5.8 10.7 5.8c3.2 0 5.8-2.6 5.8-5.8 0-3.2-2.6-5.8-5.8-5.8z"/><path id="XMLID_1022_" class="st2" d="M29.5 41.9l2.5 1.9h-2.5z"/><path id="XMLID_1021_" class="st3" d="M23.4 48.4c-2 0-6.6 3.6-6.6 3.6s4.7 3.6 6.6 3.6S27 54 27 52s-1.6-3.6-3.6-3.6z"/></g><path class="st9" d="M61.1 232a14.553 14.553 0 0 0-13.5-20.1c-7.6 0-13.8 5.8-14.5 13.1-1.5-1-3.3-1.6-5.3-1.6-4.9 0-9 3.8-9.3 8.7h42.6zm98.5 0c-2.8-4.7-8-7.9-13.9-7.9s-11 3.2-13.9 7.9h27.8z"/></g></svg>